<svg viewBox="0 0 72 72" fill="none" xmlns="http://www.w3.org/2000/svg">
  <path d="M19.1592 49.2695C20.3328 49.4414 21.5199 49.3775 22.635 49.0607C22.7754 49.0238 22.9113 48.9743 23.0499 48.932C23.1858 48.8816 23.3235 48.8375 23.4558 48.7799L23.6556 48.6971L23.8527 48.6062C23.9823 48.5468 24.1236 48.4766 24.2586 48.4118L25.8966 47.6234L32.4468 44.468C36.8172 42.371 41.1858 40.2713 45.5634 38.1896L52.1289 35.0657L55.413 33.5078L55.6182 33.4106L55.8081 33.3143C55.9359 33.2531 56.0583 33.1802 56.1816 33.11C56.3058 33.0416 56.4219 32.9597 56.5425 32.885C56.6586 32.804 56.7747 32.723 56.8881 32.6384C57.3381 32.2946 57.7476 31.8977 58.1076 31.4603C58.4631 31.0193 58.7682 30.5378 59.0166 30.0275C59.2623 29.5163 59.4441 28.9754 59.5674 28.4219C59.8113 27.3131 59.7879 26.1476 59.4999 25.046C59.4684 24.9074 59.4207 24.7724 59.3811 24.6356C59.3379 24.4997 59.2857 24.3674 59.238 24.2324C59.1813 24.1001 59.13 23.9723 59.0688 23.8346C59.0058 23.705 58.9464 23.5763 58.8807 23.4485C58.6152 22.9427 58.2912 22.4675 57.9168 22.0355C57.1644 21.1751 56.2014 20.492 55.1304 20.0708C54.864 19.9619 54.5886 19.8764 54.3114 19.7981C54.0315 19.7297 53.7498 19.6676 53.4636 19.6316C52.893 19.5533 52.3125 19.5371 51.7392 19.6001C51.1659 19.6613 50.5989 19.7882 50.0553 19.9826C49.9212 20.0357 49.7844 20.0825 49.6521 20.141C49.5189 20.2013 49.3902 20.2544 49.2516 20.3228L48.4317 20.7152L41.8752 23.858L28.7838 30.1868L22.2363 33.3476L18.9567 34.9163L18.1368 35.3087L17.7273 35.5049C17.6022 35.5706 17.4735 35.6309 17.3493 35.6993C16.8534 35.9729 16.3899 36.3032 15.9696 36.683C15.1335 37.4453 14.4801 38.4092 14.0868 39.473C13.9842 39.7376 13.9041 40.0094 13.8321 40.2839C13.7682 40.5602 13.7088 40.8383 13.6755 41.12C13.6017 41.6825 13.5882 42.2549 13.6476 42.8219L13.6701 43.0343L13.7034 43.2458C13.7223 43.3871 13.7547 43.5266 13.7835 43.6661C13.8114 43.8065 13.8528 43.9433 13.8852 44.0828C13.9266 44.2196 13.9662 44.3573 14.0121 44.4932C14.2011 45.0341 14.445 45.5606 14.7501 46.0511C14.9013 46.2977 15.0678 46.5344 15.2487 46.7612C15.4278 46.9898 15.6186 47.2103 15.8265 47.4155C16.2369 47.8313 16.6986 48.2003 17.1954 48.5243L17.1972 48.5252C17.2809 48.5792 17.3043 48.6917 17.2494 48.7745C17.1999 48.851 17.1018 48.8771 17.0217 48.8393C15.8949 48.3137 14.8932 47.483 14.1534 46.4516C13.41 45.4238 12.9132 44.2043 12.7449 42.9299C12.699 42.6122 12.6792 42.2909 12.6702 41.9696C12.6693 41.6483 12.681 41.3261 12.7188 41.0057C12.7872 40.3649 12.9366 39.7331 13.1598 39.1283C13.6035 37.9169 14.3433 36.8162 15.2946 35.9423C15.7716 35.5067 16.2999 35.1278 16.8642 34.8146C17.0046 34.7363 17.1504 34.6661 17.2944 34.5923L17.7048 34.397L18.5256 34.0073L21.8097 32.4485L28.3896 29.3552L41.5521 23.1749L48.123 20.0627L48.9438 19.673C49.077 19.6082 49.2273 19.5434 49.3704 19.4786C49.5153 19.4138 49.6647 19.3616 49.8123 19.3031C50.409 19.088 51.0318 18.9449 51.6627 18.8747C52.2936 18.8018 52.9335 18.809 53.5635 18.8891C54.1944 18.9674 54.8154 19.1213 55.4112 19.3454C56.6046 19.7882 57.6918 20.5244 58.5522 21.4703C58.9815 21.9446 59.3559 22.4702 59.6637 23.0309C59.7402 23.1713 59.8104 23.3162 59.8824 23.4575C59.9472 23.5961 60.0129 23.7482 60.0777 23.8931C60.1344 24.0434 60.1965 24.191 60.2478 24.3431C60.2964 24.4961 60.3522 24.6464 60.3918 24.803C60.5637 25.4213 60.6726 26.0612 60.6888 26.7047C60.7077 27.3482 60.6546 27.9944 60.5232 28.6253C60.3882 29.2553 60.1821 29.87 59.9058 30.4523C59.6268 31.0328 59.2821 31.5836 58.8753 32.084C58.4658 32.5826 57.9987 33.0335 57.4857 33.425C57.357 33.5213 57.2247 33.614 57.0915 33.7058C56.9547 33.7904 56.8224 33.884 56.6811 33.9614C56.5407 34.0415 56.4021 34.1234 56.2572 34.1927L56.0412 34.3016L55.836 34.3988L52.5501 35.9531L45.9747 39.0554C41.5917 41.1245 37.1997 43.1747 32.8086 45.2285L26.2179 48.2984L24.57 49.0661C24.4305 49.13 24.3 49.1948 24.1533 49.2578L23.9355 49.3523L23.7141 49.4378C23.5674 49.4972 23.4153 49.5422 23.265 49.5935C23.1129 49.6376 22.9617 49.6835 22.806 49.7168C21.5757 50.012 20.2707 49.9841 19.0809 49.6205C18.9855 49.5917 18.9324 49.49 18.9612 49.3955C18.9864 49.3082 19.0728 49.256 19.1592 49.2695Z" fill="black"/>
  <path d="M49.9284 19.8467L26.8524 8.78389L26.9946 8.81989L17.9442 8.50489L18.2772 7.84789L23.9949 14.8832L23.8158 14.7428C25.3107 15.4475 26.8092 16.1441 28.3014 16.8542L32.7789 18.9836L37.251 21.1238C38.7378 21.8447 40.2246 22.5665 41.6943 23.3261C41.805 23.3828 41.8482 23.5187 41.7906 23.6294C41.7366 23.7338 41.6115 23.7779 41.5044 23.7338C39.9753 23.1029 38.4633 22.4351 36.9522 21.7664L32.4288 19.7378L27.9099 17.6975C26.4033 17.0189 24.903 16.3259 23.3991 15.6401L23.3973 15.6392C23.3262 15.6068 23.265 15.5573 23.22 15.4988L17.6436 8.35189L17.64 8.34739C17.5023 8.17189 17.5338 7.91719 17.7102 7.78039C17.7894 7.71919 17.8839 7.69129 17.9766 7.69489L27.0234 8.09989H27.0261C27.0756 8.10169 27.1233 8.11519 27.1656 8.13499L50.1633 19.3598C50.2974 19.4255 50.3532 19.5866 50.2875 19.7207C50.2227 19.8548 50.0616 19.9106 49.9284 19.8467Z" fill="black"/>
  <path d="M27.3168 8.39318C27.3402 8.46878 27.3546 8.52817 27.3708 8.59387C27.3852 8.65867 27.3987 8.72257 27.4104 8.78647C27.4338 8.91517 27.4509 9.04388 27.4653 9.17348C27.4905 9.43178 27.4995 9.69188 27.4887 9.95198C27.4725 10.4722 27.378 10.9897 27.2268 11.4901C27.1467 11.7394 27.0495 11.9824 26.9406 12.22C26.8812 12.337 26.8236 12.454 26.757 12.5665C26.6958 12.6817 26.6229 12.7906 26.5518 12.8986C26.2602 13.3297 25.9047 13.714 25.497 14.0236C25.4169 14.0839 25.3026 14.0686 25.2423 13.9885C25.1937 13.9237 25.1937 13.8382 25.2378 13.7752L25.2396 13.7725C25.5159 13.3756 25.7634 12.9769 25.9677 12.5593C26.1684 12.1408 26.3313 11.7097 26.4483 11.2642C26.5671 10.8205 26.6427 10.3642 26.6832 9.90338C26.7021 9.67298 26.7156 9.44078 26.7165 9.20948C26.7201 9.09338 26.7165 8.97728 26.7147 8.86208C26.7138 8.80448 26.712 8.74688 26.7084 8.68928L26.7012 8.52637L26.7003 8.49938C26.6922 8.32568 26.8272 8.17807 27.0009 8.16997C27.1476 8.16367 27.2763 8.25818 27.3168 8.39318Z" fill="black"/>
  <path d="M21.789 8.25195C21.789 8.25195 22.0707 10.3256 20.3769 11.1338L17.9604 8.09985L21.789 8.25195Z" fill="black"/>
  <path d="M23.022 49.0327L51.4512 63.4597L50.787 63.6704L55.1673 55.5271L55.3473 56.0788L52.5285 54.7072L49.7133 53.3284L44.0901 50.5555L38.4768 47.7628C36.6075 46.8277 34.722 45.9259 32.9139 44.8675C32.8068 44.8045 32.7699 44.6659 32.8329 44.5588C32.8905 44.4607 33.0102 44.422 33.1119 44.4634C35.0559 45.2464 36.9225 46.186 38.8053 47.0932L44.4483 49.8256L50.0823 52.5769L52.8948 53.9611L55.7046 55.3516C55.9053 55.4515 55.9881 55.6945 55.8882 55.8961L55.8864 55.8997L55.8846 55.9042L51.6636 64.1311C51.5403 64.3724 51.2442 64.4668 51.0039 64.3435L51.0021 64.3426L50.9994 64.3417L22.6935 49.6735C22.5171 49.5817 22.4478 49.3648 22.5396 49.1884C22.6305 49.0129 22.8456 48.9436 23.022 49.0327Z" fill="black"/>
  <path d="M38.9439 22.527L23.0382 22.1868L23.4081 21.8538L23.0022 24.8535C22.9887 24.9525 22.8978 25.0218 22.7997 25.0083C22.7079 24.9957 22.6422 24.9165 22.644 24.8265L22.6908 21.7998C22.6935 21.6126 22.8474 21.4632 23.0346 21.4659H23.0409L23.0607 21.4668L38.9583 22.0761C39.0825 22.0806 39.1797 22.185 39.1743 22.3092C39.168 22.4334 39.0663 22.5297 38.9439 22.527Z" fill="black"/>
  <path d="M22.9104 22.1102L18.1584 19.8836L18.531 19.8755C17.8272 20.2499 17.1207 20.6189 16.4034 20.9645C15.6879 21.3146 14.9643 21.6458 14.2353 21.9653C13.5072 22.2857 12.771 22.589 12.0303 22.8806C11.2878 23.1713 10.5462 23.4476 9.7803 23.7023L9.8127 23.03C10.1727 23.1902 10.5354 23.3441 10.8927 23.5088C11.2491 23.6762 11.6091 23.8382 11.961 24.0146C12.6711 24.3566 13.3668 24.7274 14.0589 25.1063C14.7483 25.4888 15.4278 25.8911 16.0965 26.3114C16.4313 26.5202 16.7616 26.738 17.091 26.9594C17.4204 27.1835 17.7408 27.4058 18.0693 27.6542H18.0702L17.6436 27.5822L22.5954 25.9541H22.5963C22.6422 25.9388 22.6899 25.9325 22.7349 25.9343C23.4909 25.9703 24.246 26.0117 25.0011 26.0612L26.1333 26.1332L27.2655 26.2142C28.0197 26.2709 28.7748 26.3195 29.529 26.3852C30.2832 26.4509 31.0365 26.5292 31.788 26.6336C31.887 26.6471 31.9554 26.7389 31.9419 26.837C31.9293 26.9261 31.8546 26.9909 31.7673 26.9927C31.0086 27.0107 30.2517 27.0017 29.4948 26.981C28.7379 26.9594 27.9828 26.9225 27.2268 26.8919L26.0928 26.8433L24.9597 26.7857C24.2037 26.7488 23.4486 26.7029 22.6944 26.6534L22.833 26.6336H22.8321L17.9397 28.4318C17.7948 28.4849 17.6391 28.4561 17.5248 28.3697L17.5131 28.3607C17.2233 28.133 16.9056 27.9017 16.5933 27.6812C16.2774 27.4598 15.9597 27.2411 15.6357 27.0305C14.9895 26.6066 14.3307 26.1998 13.6602 25.811C12.9888 25.4258 12.3111 25.0478 11.6199 24.6986C11.277 24.5177 10.9269 24.3521 10.5795 24.1802C10.2312 24.011 9.8766 23.8526 9.5256 23.6888L9.5202 23.6861C9.3393 23.6015 9.2619 23.3864 9.3465 23.2064C9.3897 23.1137 9.4689 23.048 9.558 23.0174C10.2915 22.7663 11.0304 22.4828 11.7576 22.1894C12.4866 21.8951 13.2102 21.5882 13.9266 21.2651C14.643 20.942 15.3549 20.609 16.0569 20.2571C16.7616 19.9097 17.4546 19.5398 18.1431 19.1645L18.1593 19.1564C18.2745 19.097 18.4077 19.1015 18.5157 19.1564L23.1885 21.5441C23.3433 21.6233 23.4045 21.8132 23.3253 21.968C23.247 22.1192 23.0634 22.1813 22.9104 22.1102Z" fill="black"/>
  <path d="M9.68579 23.0902L17.5149 23.533C17.6598 23.5411 17.7795 23.6365 17.8263 23.7652L17.838 23.7985C17.847 23.8093 17.8614 23.8399 17.8749 23.8624L17.9163 23.9362C17.9451 23.9857 17.9748 24.0343 18.0054 24.082C18.0684 24.1756 18.1314 24.2674 18.2043 24.3457C18.3438 24.5068 18.4968 24.6301 18.6633 24.7003C18.828 24.7714 19.0116 24.8038 19.2222 24.793C19.4229 24.784 19.6056 24.7219 19.7568 24.6175C19.8351 24.568 19.8999 24.5014 19.9566 24.4285C20.0133 24.3556 20.0592 24.2719 20.0889 24.181C20.1195 24.0946 20.1411 23.9875 20.1393 23.9146C20.1384 23.8291 20.1168 23.7319 20.079 23.6365C20.0412 23.5411 19.9881 23.4484 19.9224 23.3629C19.8549 23.2792 19.7766 23.2018 19.6884 23.1334C19.5075 23.0029 19.2879 22.9111 19.044 22.8706L19.0395 22.8697C18.9414 22.8535 18.8748 22.7599 18.891 22.6609C18.9054 22.5763 18.9756 22.516 19.0575 22.5106C19.3536 22.4908 19.6686 22.543 19.9557 22.6852C20.097 22.759 20.232 22.8481 20.3517 22.9606C20.4687 23.0731 20.5731 23.2018 20.6586 23.3476C20.7441 23.4925 20.8044 23.6563 20.8341 23.839C20.8629 24.0352 20.8458 24.1999 20.8116 24.3745C20.7369 24.7174 20.5407 25.036 20.268 25.2664C19.9944 25.4968 19.6506 25.63 19.3149 25.6714C18.9891 25.7173 18.6192 25.684 18.2907 25.5355C18.2484 25.5193 18.2097 25.4977 18.171 25.4752L18.0558 25.4086C17.982 25.36 17.9127 25.3069 17.8452 25.252C17.7192 25.135 17.6022 25.0117 17.5113 24.8749C17.4168 24.7399 17.3412 24.5986 17.2809 24.4528C17.2494 24.3808 17.2242 24.3061 17.2008 24.2305C17.19 24.1918 17.1783 24.1558 17.1693 24.1153C17.1594 24.0748 17.1522 24.0406 17.1432 23.9875L17.4663 24.253L9.64889 23.6311C9.50039 23.6194 9.38969 23.4889 9.40139 23.3404C9.41309 23.1919 9.53999 23.0821 9.68579 23.0902Z" fill="black"/>
  <path d="M50.3523 53.1945C50.2623 53.4267 50.1525 53.6481 50.0382 53.8668C49.9239 54.0855 49.8006 54.2997 49.6728 54.5103C49.5441 54.7209 49.41 54.9288 49.2633 55.1295C49.1184 55.3311 48.9654 55.5282 48.7899 55.7127C48.7197 55.7874 48.6018 55.7901 48.5271 55.7199C48.4758 55.6713 48.4587 55.6011 48.4758 55.5372C48.5415 55.2915 48.6288 55.0575 48.7251 54.828C48.8196 54.5985 48.9267 54.3753 49.0383 54.1548C49.1508 53.9352 49.2687 53.7183 49.3947 53.5059C49.5207 53.2935 49.6521 53.0847 49.8033 52.8858C49.9095 52.7454 50.1093 52.7184 50.2488 52.8246C50.364 52.9137 50.4027 53.0658 50.3523 53.1945Z" fill="black"/>
  <path d="M44.3223 50.236C44.2359 50.4763 44.1252 50.7022 44.01 50.9263C43.893 51.1486 43.7661 51.3664 43.632 51.5806C43.4979 51.7939 43.3557 52.0036 43.2027 52.2061C43.0488 52.4086 42.8886 52.6075 42.7014 52.792C42.6276 52.8649 42.5088 52.864 42.4359 52.7902C42.39 52.7434 42.3738 52.6777 42.3864 52.6174C42.444 52.3609 42.5268 52.1197 42.6168 51.8821C42.7077 51.6445 42.8094 51.4132 42.9192 51.1864C43.029 50.9596 43.146 50.7364 43.2729 50.5186C43.4016 50.3017 43.5348 50.0875 43.6923 49.8877C43.8165 49.7293 44.046 49.7023 44.2044 49.8265C44.3304 49.9255 44.3736 50.092 44.3223 50.236Z" fill="black"/>
  <path d="M37.9521 47.106C37.8576 47.3391 37.7478 47.5641 37.6326 47.7864C37.5183 48.0087 37.395 48.2265 37.2699 48.4434L37.0764 48.7647C37.008 48.87 36.9432 48.9771 36.873 49.0806C36.7344 49.2903 36.5895 49.4955 36.4293 49.6926C36.3492 49.7907 36.2052 49.8051 36.1071 49.725C36.0315 49.6638 36.0063 49.563 36.0342 49.4757C36.1143 49.2345 36.2106 49.0014 36.3123 48.7728C36.3618 48.6576 36.4176 48.5451 36.4698 48.4317L36.6372 48.096C36.7524 47.8737 36.8703 47.6532 36.9972 47.4372C37.1232 47.2212 37.2537 47.007 37.4004 46.8027C37.5021 46.6605 37.7001 46.6272 37.8432 46.7289C37.9638 46.8153 38.0061 46.9728 37.9521 47.106Z" fill="black"/>
  <path d="M47.4255 51.885L46.3401 53.352C46.2807 53.4321 46.1673 53.4491 46.0863 53.3897C46.0179 53.3393 45.9954 53.2503 46.026 53.1747L46.7199 51.4872C46.8054 51.2784 47.0439 51.1793 47.2527 51.2648C47.4615 51.3503 47.5605 51.5889 47.475 51.7977C47.4615 51.8283 47.4444 51.8589 47.4255 51.885Z" fill="black"/>
  <path d="M53.0496 54.7334L52.1325 55.8944C52.0704 55.9736 51.9552 55.9871 51.8769 55.9241C51.813 55.8737 51.7923 55.7891 51.8193 55.7162L52.3449 54.3329C52.425 54.1214 52.6617 54.0152 52.8732 54.0953C53.0847 54.1754 53.1909 54.4121 53.1108 54.6236C53.0964 54.665 53.0739 54.7019 53.0496 54.7334Z" fill="black"/>
  <path d="M41.2668 48.9211L40.3092 50.2324C40.2498 50.3134 40.1373 50.3305 40.0563 50.272C39.987 50.2207 39.9636 50.1298 39.9969 50.0542L40.6422 48.5638C40.7214 48.3802 40.9347 48.2956 41.1183 48.3757C41.3019 48.4549 41.3865 48.6682 41.3064 48.8518C41.2965 48.8761 41.2821 48.9004 41.2668 48.9211Z" fill="black"/>
  <path d="M34.7193 45.7325L33.7824 47.0375C33.7239 47.1194 33.6105 47.1374 33.5286 47.0789C33.4611 47.0303 33.4368 46.9448 33.4638 46.8701L34.002 45.3563C34.0776 45.1439 34.3116 45.0323 34.5249 45.1079C34.7373 45.1835 34.8489 45.4175 34.7733 45.6308C34.7598 45.6677 34.7409 45.7028 34.7193 45.7325Z" fill="black"/>
  <path d="M58.7043 40.4801C59.1984 40.8743 59.5989 41.3927 59.8905 41.9669C60.183 42.542 60.3684 43.1756 60.4332 43.8245C60.4962 44.4734 60.4215 45.1385 60.219 45.7577C60.1947 45.8351 60.1713 45.9134 60.1452 45.9899L60.0516 46.2158L59.9571 46.4399L59.8473 46.6568L59.7357 46.8728C59.6988 46.9448 59.6529 47.0123 59.6115 47.0816C59.5269 47.2193 59.445 47.3588 59.3442 47.4866C58.968 48.014 58.4892 48.4694 57.942 48.8222C57.3939 49.1723 56.7783 49.4225 56.1366 49.544C55.4949 49.6601 54.8379 49.6664 54.1908 49.5521C53.5455 49.4378 52.9173 49.1975 52.3629 48.8384C51.8058 48.482 51.327 48.0086 50.9517 47.4668C50.5782 46.9232 50.3118 46.3112 50.157 45.6758C49.9995 45.0395 49.9635 44.3834 50.0283 43.7345C50.0949 43.0856 50.2794 42.4475 50.5737 41.8643C50.868 41.2811 51.2757 40.7582 51.7608 40.328C52.245 39.8969 52.8093 39.5639 53.4069 39.3362L53.6328 39.2561C53.7075 39.2291 53.7831 39.2021 53.8605 39.185C54.0153 39.1472 54.1683 39.1022 54.3231 39.0716L54.792 38.9996C54.9504 38.9807 55.1115 38.9699 55.2717 38.9681C55.9134 38.9573 56.5533 39.1022 57.1203 39.3749C57.2103 39.4181 57.2481 39.5261 57.2049 39.6152C57.1644 39.6989 57.069 39.7367 56.9835 39.707H56.9826C56.4363 39.5171 55.8603 39.4478 55.2969 39.4973C55.1556 39.5099 55.0161 39.5297 54.8775 39.5576L54.4581 39.6557C54.3204 39.6944 54.1854 39.7421 54.0495 39.7835C53.9811 39.8024 53.9154 39.8312 53.8506 39.8591L53.6544 39.9419C53.1369 40.1723 52.6635 40.4873 52.2612 40.8725C51.8589 41.2577 51.534 41.7176 51.3018 42.2189C51.0678 42.7193 50.9328 43.2629 50.8878 43.8137L50.8761 44.0207C50.8725 44.09 50.8644 44.1584 50.8698 44.2286C50.8752 44.3672 50.8779 44.5067 50.8851 44.6453L50.9373 45.0575C50.9607 45.1934 50.9949 45.3275 51.0219 45.4625C51.2856 46.5335 51.9372 47.4947 52.8462 48.0977C53.2989 48.3992 53.8101 48.6152 54.3483 48.7268C54.8856 48.8384 55.4517 48.851 55.9998 48.7682C56.5461 48.6791 57.0762 48.4874 57.5478 48.1949C58.0203 47.9051 58.4316 47.5154 58.7583 47.0636L58.8213 46.9799L58.8528 46.9376L58.8789 46.8926L58.9842 46.7117C59.0175 46.6505 59.0589 46.5938 59.0868 46.529L59.1705 46.3364C59.1975 46.2716 59.229 46.2095 59.2524 46.1438L59.3136 45.9431L59.3748 45.7442C59.3901 45.6767 59.4027 45.6074 59.4171 45.5399C59.5278 44.9954 59.5566 44.4437 59.5377 43.8893C59.5116 43.3358 59.4072 42.7823 59.2236 42.2495C59.0391 41.7167 58.7772 41.2055 58.4424 40.7231L58.4415 40.7213C58.3839 40.6385 58.4046 40.5251 58.4874 40.4684C58.5549 40.4261 58.6431 40.4315 58.7043 40.4801Z" fill="black"/>
  <path d="M57.6045 32.9696L57.735 37.4309L57.4461 37.0466C58.2876 37.3157 59.0823 37.7279 59.7798 38.2661C60.48 38.8016 61.0749 39.4685 61.5384 40.2155C62.0001 40.9625 62.3385 41.7878 62.5104 42.6473C62.6886 43.5068 62.73 44.3825 62.6427 45.2519C62.5536 46.1204 62.3196 46.9808 61.9308 47.7728C61.7355 48.1679 61.5051 48.5459 61.2396 48.8996C60.9741 49.2533 60.6708 49.5773 60.3432 49.8743C59.6862 50.4674 58.9149 50.9273 58.0977 51.2504C57.6882 51.4115 57.2688 51.5447 56.8413 51.6419C56.412 51.7373 55.9872 51.8102 55.5381 51.8471C55.0926 51.8813 54.6426 51.8696 54.1962 51.8174C53.7507 51.7643 53.3106 51.6617 52.8831 51.5213C52.4556 51.3818 52.0452 51.1919 51.6564 50.9696C51.2676 50.7464 50.8986 50.4881 50.5602 50.1956C49.8816 49.6133 49.3092 48.9122 48.8754 48.1355C48.4452 47.3579 48.1437 46.5092 47.9997 45.6353C47.925 45.1988 47.8935 44.756 47.898 44.3159C47.8971 43.8758 47.9385 43.4357 48.0114 43.0019C48.1599 42.1352 48.4497 41.2919 48.8871 40.5323C49.1085 40.1543 49.3515 39.7889 49.6359 39.4568L49.8501 39.2093C49.9212 39.1265 50.004 39.0545 50.0805 38.9771C50.1588 38.9015 50.2353 38.8241 50.3145 38.7494L50.5656 38.5406C51.2406 37.9907 52.0218 37.5767 52.848 37.3373C52.9434 37.3094 53.0433 37.3652 53.0712 37.4606C53.0973 37.5497 53.0505 37.6424 52.9668 37.6775L52.965 37.6784C52.2126 37.9898 51.5223 38.4272 50.9319 38.9681C50.3397 39.5072 49.8501 40.1516 49.4838 40.8572C49.1157 41.5628 48.8862 42.3359 48.7854 43.1198C48.7368 43.5122 48.7161 43.9091 48.7332 44.3033C48.744 44.6993 48.7935 45.0899 48.8682 45.476C49.0167 46.2482 49.3092 46.988 49.7025 47.6621C50.0922 48.3398 50.6007 48.9473 51.1956 49.4459C51.7905 49.9436 52.4673 50.3432 53.1972 50.5961C53.5617 50.7239 53.9388 50.8139 54.3204 50.8724C54.7029 50.93 55.0908 50.9534 55.4796 50.9363C55.8639 50.9174 56.2662 50.8625 56.6559 50.7887C57.0465 50.7149 57.4299 50.6078 57.8025 50.4764C58.1751 50.3441 58.5369 50.1821 58.8807 49.9895C59.2236 49.7951 59.5467 49.5665 59.8455 49.3118C60.4422 48.7988 60.9354 48.1661 61.2837 47.4569C61.6338 46.7486 61.848 45.9728 61.9308 45.179C62.0127 44.3852 61.9749 43.5725 61.8156 42.7958L61.8021 42.722L61.7823 42.65L61.7436 42.506L61.6671 42.218L61.5681 41.9372C61.533 41.8445 61.5078 41.7482 61.4637 41.6582L61.3449 41.3855C61.3242 41.3405 61.3071 41.2937 61.2846 41.2496L61.2144 41.1182L61.0749 40.8554C61.0272 40.769 60.9705 40.6871 60.9183 40.6025C60.084 39.2507 58.7232 38.2589 57.2103 37.8224L57.1779 37.8107C57.0177 37.7522 56.9196 37.5992 56.9214 37.4381L56.9709 32.975C56.9727 32.8013 57.1158 32.6618 57.2895 32.6636C57.4632 32.6663 57.6 32.8022 57.6045 32.9696Z" fill="black"/>
  <path d="M33.3909 33.4872C35.0226 33.1623 36.6318 32.7915 38.1753 32.2488C38.367 32.1786 38.5614 32.1156 38.7513 32.0391C38.9403 31.9617 39.132 31.8915 39.3183 31.8096C39.5037 31.7259 39.6936 31.6512 39.8772 31.5639C40.059 31.4739 40.2453 31.3911 40.4244 31.2966C41.1462 30.9258 41.8302 30.4893 42.462 29.9907C43.0929 29.4921 43.6626 28.9197 44.1486 28.2843C44.6373 27.6507 45.0342 26.9478 45.3258 26.2008C45.6201 25.4538 45.8082 24.6636 45.9081 23.859C46.0062 23.0535 46.0161 22.2327 45.9594 21.4128V21.411C45.9513 21.2868 46.0449 21.1797 46.1682 21.1707C46.2861 21.1626 46.3896 21.2481 46.4067 21.3633C46.5255 22.2039 46.5687 23.0607 46.503 23.9175C46.4409 24.7734 46.2681 25.6275 45.9783 26.4456C45.6921 27.2655 45.2718 28.0386 44.7597 28.7415C44.2458 29.4435 43.632 30.0681 42.9615 30.6144C42.291 31.1616 41.5557 31.6215 40.7943 32.0157C40.6044 32.1156 40.4091 32.2038 40.2165 32.2983C40.023 32.3901 39.825 32.4711 39.6288 32.5566C39.4317 32.6394 39.2301 32.7096 39.0312 32.787C38.8314 32.8635 38.628 32.9256 38.4264 32.9958C36.8019 33.5133 35.1153 33.7905 33.4305 33.8454C33.3306 33.849 33.2478 33.7707 33.2442 33.6708C33.2415 33.5808 33.3045 33.5052 33.3891 33.4881L33.3909 33.4872Z" fill="black"/>
  <path d="M13.4901 44.0522C14.4198 43.9955 15.3342 43.9046 16.2153 43.6949C17.0964 43.4906 17.9352 43.1612 18.7056 42.7112C19.4769 42.2621 20.1843 41.6987 20.8431 41.0642C21.5019 40.4297 22.1058 39.7196 22.6971 38.9924C23.2902 38.2661 23.8752 37.52 24.525 36.8162C25.1739 36.1142 25.9065 35.4617 26.739 34.9532C27.5688 34.442 28.4868 34.0757 29.4282 33.857L29.7828 33.7832C29.9007 33.7598 30.0186 33.7301 30.1383 33.7184L30.8538 33.6302C31.3335 33.6095 31.8123 33.5825 32.2758 33.5906H32.2821C32.382 33.5924 32.4612 33.6743 32.4594 33.7742C32.4576 33.8642 32.3901 33.938 32.3028 33.9497L31.9509 33.9965C31.8321 34.0091 31.7169 34.0253 31.6035 34.0433L30.9195 34.1432L30.2463 34.2827C30.1329 34.3016 30.0249 34.3367 29.9142 34.3664L29.5848 34.4582C28.7118 34.7147 27.8838 35.0873 27.1224 35.5706C26.3619 36.0548 25.6572 36.6317 25.0137 37.2887C24.3657 37.9403 23.7726 38.6576 23.1876 39.3911C22.896 39.7583 22.6026 40.1282 22.3047 40.4972L21.8493 41.0471C21.69 41.2262 21.5343 41.4071 21.3705 41.5835C20.7162 42.2873 19.9683 42.9344 19.1106 43.4195C18.2565 43.9091 17.3088 44.2277 16.3494 44.3807C15.3882 44.5328 14.418 44.5292 13.473 44.4131C13.374 44.4005 13.3038 44.3105 13.3155 44.2115C13.3263 44.1233 13.3983 44.0585 13.4838 44.0531L13.4901 44.0522Z" fill="black"/>
  <path d="M32.3964 27.8665C32.6043 27.9934 32.832 28.1185 33.0561 28.2319C33.2811 28.348 33.5124 28.4506 33.7437 28.5496C34.209 28.7431 34.6842 28.9024 35.1684 29.0122C36.1332 29.2345 37.1331 29.2633 38.07 29.0077C38.1879 28.9789 38.3013 28.9357 38.4174 28.9006C38.5272 28.8556 38.6361 28.8097 38.7468 28.7674L39.0645 28.6045L39.3678 28.4119C39.7611 28.1347 40.1175 27.7936 40.4298 27.4093C41.0598 26.6407 41.5305 25.7281 41.9238 24.7831L41.9247 24.7813C41.9634 24.6895 42.0687 24.6463 42.1605 24.6841C42.2451 24.7192 42.2892 24.8119 42.2649 24.8983C41.9832 25.9135 41.5593 26.908 40.9176 27.7873C40.5945 28.2229 40.2156 28.6315 39.7647 28.9627C39.6504 29.0428 39.5334 29.1193 39.4164 29.1976L39.0465 29.401C38.9169 29.4577 38.7864 29.5117 38.6559 29.5657C38.5236 29.608 38.394 29.6575 38.2599 29.6917C37.7262 29.8411 37.1709 29.9176 36.6201 29.905C36.0684 29.8978 35.5239 29.8042 35.001 29.6602C34.4781 29.5108 33.9759 29.3074 33.5025 29.0545C33.0282 28.7998 32.5836 28.5127 32.1732 28.15C32.0985 28.0843 32.0913 27.97 32.1579 27.8953C32.2164 27.8287 32.3136 27.8161 32.3865 27.8611L32.3964 27.8665Z" fill="black"/>
  <path d="M30.6144 42.6555C31.5702 42.1587 32.5062 41.6277 33.3585 41.0085C33.7806 40.6962 34.1874 40.3668 34.5204 39.9969C34.6851 39.8124 34.8345 39.6216 34.9398 39.4263C35.046 39.2319 35.1009 39.0384 35.091 38.8809C35.0892 38.8611 35.0883 38.8413 35.0847 38.8224L35.0793 38.7909L35.0712 38.7486C35.0613 38.6919 35.0478 38.6361 35.0334 38.5812C35.0046 38.4714 34.9677 38.3652 34.9227 38.2635C34.8327 38.061 34.7148 37.8756 34.5663 37.7127C34.4178 37.5507 34.2405 37.4112 34.0425 37.2942C33.8436 37.1781 33.6249 37.0863 33.3936 37.0161C32.931 36.8766 32.4252 36.8271 31.9185 36.8451C31.4109 36.8622 30.8997 36.954 30.4083 37.1034C29.4246 37.4013 28.5228 37.9647 27.7461 38.6559C26.9739 39.3525 26.3097 40.1805 25.8462 41.0814C25.6203 41.5314 25.4376 42.0021 25.38 42.4602C25.3485 42.687 25.3503 42.9093 25.3953 43.1046C25.407 43.1532 25.4205 43.2009 25.4367 43.2459C25.4457 43.2684 25.4529 43.2909 25.4637 43.3125L25.4781 43.3449C25.4808 43.3503 25.4808 43.3494 25.4817 43.3521C25.4862 43.3593 25.4907 43.371 25.5087 43.3863C25.5276 43.4007 25.551 43.4196 25.5879 43.4358C25.6563 43.4718 25.7571 43.4997 25.8642 43.5195C25.9722 43.5402 26.0901 43.5528 26.2116 43.5591C26.4546 43.5726 26.712 43.5681 26.9703 43.551C27.4896 43.5195 28.0197 43.4457 28.5588 43.3818H28.5597C28.6596 43.3701 28.7505 43.4412 28.7622 43.5411C28.7712 43.6212 28.7271 43.695 28.6578 43.7274C28.1538 43.9614 27.6255 44.1405 27.0711 44.262C26.793 44.3205 26.5086 44.3673 26.2089 44.379C25.9083 44.3862 25.596 44.3835 25.2369 44.2431C25.1478 44.208 25.0551 44.1558 24.9651 44.0901C24.8742 44.0235 24.7878 43.9317 24.7185 43.8255C24.7023 43.7994 24.6843 43.7688 24.6717 43.7445L24.6438 43.6851C24.624 43.6455 24.6087 43.605 24.5925 43.5636C24.561 43.4817 24.5358 43.3989 24.5142 43.3161C24.4323 42.9831 24.4305 42.6537 24.4665 42.3432C24.5061 42.0327 24.5862 41.7393 24.6861 41.4594C24.7851 41.1786 24.9111 40.914 25.0488 40.6593C25.3251 40.1499 25.6626 39.6864 26.0316 39.2553C26.4015 38.8251 26.8074 38.43 27.243 38.07C28.1106 37.3509 29.0988 36.7605 30.1896 36.4077C30.7332 36.2331 31.2948 36.1143 31.8699 36.0648C32.445 36.0171 33.0363 36.0405 33.6213 36.1872C33.9138 36.2601 34.2027 36.3672 34.4781 36.5166C34.7535 36.6642 35.0127 36.8577 35.2323 37.0944C35.4537 37.3293 35.6337 37.6065 35.757 37.9026C35.8191 38.0502 35.8695 38.2014 35.9073 38.3544C35.9262 38.4309 35.9433 38.5074 35.9559 38.5839L35.9658 38.6415C35.9694 38.6604 35.9721 38.6883 35.9748 38.7108C35.9811 38.7585 35.9829 38.8071 35.9838 38.8548C35.9865 39.0465 35.9532 39.231 35.8983 39.3966C35.8443 39.564 35.7705 39.7143 35.6895 39.8529C35.5239 40.1292 35.3286 40.3623 35.118 40.5684C34.6977 40.9806 34.2387 41.3145 33.7608 41.6088C32.8068 42.1947 31.7943 42.6429 30.7512 42.9849C30.6567 43.0164 30.5541 42.9642 30.5235 42.8697C30.4956 42.7842 30.5343 42.6933 30.6117 42.6528L30.6144 42.6555Z" fill="black"/>
  <path d="M36.5841 42.775C37.6506 42.0658 38.6181 41.2234 39.3633 40.2082C39.7377 39.7024 40.0572 39.1579 40.3497 38.5918C40.6422 38.0257 40.9077 37.4389 41.1948 36.8503C41.4801 36.2617 41.7861 35.6722 42.1488 35.1097C42.5088 34.5463 42.9282 34.0162 43.3953 33.5347C43.8606 33.0523 44.3691 32.614 44.9082 32.2243C45.0396 32.1217 45.18 32.0335 45.3159 31.9381L45.5211 31.7977L45.7317 31.6654L46.1502 31.4026L46.5597 31.1488C47.6496 30.4684 48.6882 29.7088 49.6485 28.8673C50.6016 28.0213 51.4809 27.0907 52.1748 26.0512C52.5186 25.531 52.8183 24.9856 53.0361 24.4159C53.2566 23.848 53.3979 23.2549 53.415 22.6609C53.4168 22.5871 53.4204 22.5124 53.4204 22.4386L53.4087 22.2172C53.4069 22.1425 53.3988 22.0696 53.3889 21.9967C53.3799 21.9238 53.3727 21.8491 53.3619 21.7762C53.3295 21.6322 53.3106 21.4837 53.2629 21.3433C53.2422 21.2722 53.226 21.1993 53.2017 21.1282L53.1252 20.9176C53.1027 20.8465 53.0685 20.779 53.0379 20.7106C53.0064 20.6422 52.9803 20.5711 52.9443 20.5045C52.8723 20.3713 52.8048 20.2354 52.7211 20.1076C52.5663 19.843 52.3728 19.6009 52.1793 19.3543L52.1712 19.3435C52.0947 19.2454 52.1118 19.1041 52.2099 19.0267C52.2954 18.9592 52.4151 18.9646 52.4952 19.033C52.7517 19.2517 53.001 19.4875 53.2116 19.7593C53.4294 20.0257 53.6157 20.3218 53.7678 20.6359C53.9244 20.9491 54.0324 21.2866 54.1134 21.6295C54.1818 21.9742 54.2277 22.3279 54.2151 22.6789C54.2133 23.3845 54.0432 24.0712 53.7975 24.7102C53.5464 25.3501 53.2116 25.945 52.8237 26.4949C52.4367 27.0448 52.0047 27.556 51.5448 28.0348C51.0849 28.5145 50.5917 28.9546 50.0877 29.3794L49.7061 29.6935C49.5783 29.7979 49.4469 29.8951 49.3173 29.9968C49.059 30.2011 48.7917 30.3901 48.528 30.5854C47.9925 30.9643 47.4516 31.3333 46.8981 31.6825L46.4841 31.9462L46.0827 32.2063L45.8838 32.3377L45.6912 32.4763C45.5643 32.5699 45.4311 32.6572 45.3096 32.758C44.8065 33.1414 44.3376 33.5635 43.9119 34.0225C43.4871 34.4833 43.101 34.9765 42.759 35.5039C42.4161 36.0304 42.111 36.5875 41.8185 37.159C41.5269 37.7314 41.2416 38.3191 40.9203 38.896C40.6035 39.4747 40.2381 40.0372 39.8178 40.5565C39.3984 41.0758 38.9277 41.5546 38.4111 41.9722C37.8945 42.3898 37.3446 42.7588 36.7722 43.081C36.6858 43.1296 36.576 43.099 36.5265 43.0126C36.4797 42.9298 36.5058 42.8263 36.5832 42.775H36.5841Z" fill="black"/>
  <path d="M60.1209 25.6922C59.8338 25.7903 59.5377 25.9028 59.2506 26.0198C58.9626 26.1386 58.6764 26.2592 58.3965 26.3933C58.2543 26.4545 58.1157 26.5256 57.9771 26.594L57.7692 26.6966L57.5649 26.8064C57.429 26.8811 57.2895 26.9468 57.1572 27.0278C57.024 27.1061 56.8917 27.1862 56.7576 27.2609C55.7091 27.9044 54.7209 28.6595 53.9325 29.5964C53.7426 29.8358 53.5383 30.0608 53.3655 30.3209L53.0964 30.6998L52.8453 31.0904L52.7193 31.2857C52.6788 31.3514 52.641 31.4198 52.6023 31.4864L52.3692 31.8887C52.2297 32.165 52.0794 32.4368 51.9534 32.7194C51.6915 33.281 51.4674 33.8606 51.2874 34.4546C51.201 34.7525 51.12 35.0522 51.0606 35.3564C51.0003 35.6579 50.9445 35.9711 50.9238 36.2645L50.9229 36.2762C50.9157 36.3752 50.8302 36.4499 50.7312 36.4427C50.6367 36.4364 50.5647 36.3572 50.5638 36.2645C50.5611 35.9243 50.5872 35.6075 50.6331 35.2844C50.6754 34.9622 50.7411 34.6454 50.8113 34.3295C50.9562 33.6977 51.1641 33.0821 51.4125 32.4836C51.5295 32.1812 51.678 31.8923 51.8148 31.5989L52.0443 31.1705C52.083 31.0994 52.1199 31.0274 52.1604 30.9572L52.2855 30.7493L52.5375 30.3335L52.8111 29.9321C52.9848 29.6603 53.2008 29.4083 53.3997 29.1482L53.4762 29.051C53.5023 29.0195 53.5311 28.9898 53.5581 28.9592L53.7246 28.7783C53.8371 28.6595 53.946 28.5362 54.063 28.421L54.423 28.0871L54.6039 27.9206L54.7947 27.7667L55.1763 27.458L55.575 27.1736L55.7757 27.0341L55.9836 26.9054C56.1231 26.8208 56.259 26.7317 56.4003 26.6507C56.9673 26.3303 57.5586 26.0576 58.1652 25.8317C58.4703 25.7228 58.7772 25.6193 59.0904 25.5383L59.3253 25.4762L59.5629 25.4231C59.7222 25.388 59.8797 25.361 60.0462 25.3376C60.1452 25.3241 60.2361 25.3925 60.2496 25.4906C60.2622 25.5779 60.21 25.6589 60.129 25.6868L60.1209 25.6922Z" fill="black"/>
  <path d="M13.3146 40.0822C14.3073 39.8707 15.2694 39.5872 16.1721 39.175C17.0748 38.7646 17.9199 38.2417 18.6795 37.6126C19.0593 37.2976 19.4166 36.9574 19.7514 36.5938C19.9188 36.412 20.0772 36.2221 20.2302 36.0286C20.385 35.836 20.5308 35.6362 20.6721 35.4328C21.2328 34.6165 21.6729 33.7174 21.9753 32.7643L21.9762 32.7616C22.014 32.6428 22.1409 32.5771 22.2597 32.6149C22.3677 32.6491 22.4325 32.758 22.4136 32.8669C22.2399 33.9127 21.8367 34.9189 21.2832 35.827C21.1428 36.0529 20.9961 36.2752 20.8395 36.4912C20.6811 36.7054 20.5146 36.9142 20.34 37.1149C19.9917 37.519 19.6092 37.8943 19.1988 38.2354C18.3798 38.9203 17.4456 39.4684 16.4502 39.8455C15.4539 40.2172 14.4009 40.4242 13.3533 40.4395C13.2534 40.4413 13.1715 40.3612 13.1697 40.2613C13.1688 40.1731 13.23 40.0993 13.3128 40.0822H13.3146Z" fill="black"/>
</svg>
