<svg viewBox="0 0 800 800" fill="none" xmlns="http://www.w3.org/2000/svg">
<path d="M133.52 630.83L135.75 668.88L131.18 664.53L637.42 656.24L632.51 661.58C632.25 657.57 632.08 653.54 631.99 649.52C631.88 645.5 631.84 641.47 631.8 637.44C631.74 633.41 631.71 629.38 631.71 625.35C631.68 621.32 631.73 617.28 631.75 613.25C631.76 611.87 632.89 610.75 634.27 610.76C635.53 610.77 636.57 611.7 636.74 612.92C637.3 616.91 637.9 620.91 638.41 624.9C638.95 628.9 639.46 632.89 639.95 636.89C640.45 640.89 640.95 644.89 641.38 648.89C641.83 652.89 642.2 656.9 642.49 660.91C642.68 663.66 640.62 666.04 637.87 666.23C637.78 666.24 637.69 666.24 637.61 666.24H637.58L131.32 673.53H131.2C128.78 673.56 126.79 671.63 126.75 669.21V669.17L126.52 631.05C126.51 629.12 128.07 627.54 130 627.53C131.87 627.52 133.4 628.99 133.52 630.83Z" fill="black"/>
<path d="M167.02 668.53L168.02 702.49L164.06 698.49L613.09 701.49L607.53 706.99L609.03 661.62C609.1 659.41 610.95 657.68 613.16 657.75C615.28 657.82 616.95 659.53 617.03 661.62L618.53 706.99C618.63 709.93 616.32 712.39 613.38 712.49H613.15H612.97L163.97 706.49H163.84C161.7 706.46 159.98 704.7 160.01 702.55C160.01 702.54 160.01 702.5 160.01 702.49L161.01 668.53C161.06 666.87 162.44 665.57 164.1 665.62C165.7 665.66 166.97 666.95 167.02 668.53Z" fill="black"/>
<path d="M666.78 342.78L683.17 611.21C683.38 614.63 680.77 617.58 677.35 617.79L677.22 617.8H677.16L603.89 620.4L530.62 622.88L384.07 627.52L237.5 631.8L164.21 633.85C151.99 634.16 139.78 634.37 127.55 634.38C115.32 634.42 103.1 634.34 90.8501 633.88C89.9901 633.85 89.3101 633.12 89.3401 632.26C89.3701 631.47 89.9701 630.84 90.7301 630.76C102.91 629.44 115.1 628.49 127.3 627.67C139.5 626.82 151.7 626.17 163.91 625.61L237.16 622.47L383.66 616.36L530.17 610.62L603.43 607.91L676.7 605.32L670.69 611.91L656.8 343.34C656.66 340.58 658.78 338.23 661.53 338.09C664.27 337.95 666.61 340.04 666.78 342.78Z" fill="black"/>
<path d="M87.61 607.05C83.99 572.74 82.26 538.35 80.4 503.96L74.86 400.79L69.61 297.6L67.11 246L64.72 194.39V194.37C64.59 191.46 66.84 188.99 69.75 188.86C69.8 188.86 69.87 188.86 69.92 188.85L471.69 183.43C474.18 183.4 476.22 185.38 476.25 187.87C476.28 190.36 474.31 192.4 471.83 192.43L70.09 199.42L75.29 193.88L77.82 245.48L80.24 297.08L84.84 400.3L89.14 503.53C90.55 537.94 92.1 572.35 91.77 606.84C91.76 607.99 90.82 608.91 89.67 608.9C88.59 608.91 87.72 608.09 87.61 607.05Z" fill="black"/>
<path d="M560.22 593.7C566.7 568.27 573.6 542.95 580.48 517.64C587.46 492.35 594.34 467.04 601.64 441.84C601.77 441.42 601.83 441.11 601.91 440.8L602.14 439.85C602.33 439.22 602.36 438.57 602.45 437.92C602.48 437.6 602.56 437.28 602.57 436.95L602.59 435.98L602.62 435.01L602.54 434.04C602.36 431.46 601.69 428.9 600.58 426.55C599.48 424.19 597.95 422.04 596.07 420.24C594.19 418.44 591.97 417.02 589.56 416.05C588.98 415.75 588.33 415.62 587.72 415.4C587.39 415.3 587.14 415.2 586.75 415.09L585.56 414.78L580.8 413.54L571.28 411.05L552.26 406.04L476.23 385.77L457.21 380.73L447.7 378.21L445.32 377.58C444.9 377.46 444.57 377.4 444.23 377.33L443.21 377.12C442.87 377.05 442.53 376.96 442.19 376.91L441.16 376.8C440.47 376.74 439.78 376.61 439.09 376.65C436.32 376.53 433.53 376.95 430.89 377.79C428.24 378.63 425.73 379.9 423.48 381.55C421.23 383.2 419.3 385.26 417.73 387.55C416.17 389.84 414.91 392.37 414.22 395.09L395.1 471.31L357 624C356.47 626.14 354.29 627.45 352.15 626.91C350.01 626.37 348.7 624.22 349.23 622.07L386.84 469.25L405.65 392.73C407.58 385.44 412.1 378.88 418.12 374.35C421.15 372.11 424.54 370.36 428.13 369.18C431.71 367.99 435.51 367.39 439.3 367.5C440.25 367.46 441.19 367.59 442.13 367.68L443.54 367.82C444.01 367.88 444.47 367.99 444.93 368.08L446.32 368.36C446.79 368.45 447.26 368.55 447.63 368.65L450.01 369.25L459.54 371.67L478.61 376.5L554.92 395.7L573.98 400.56L583.51 403L588.27 404.22L589.46 404.53C589.86 404.63 590.38 404.81 590.84 404.94C591.78 405.25 592.74 405.49 593.64 405.91C597.31 407.38 600.72 409.54 603.6 412.27C606.47 415 608.83 418.26 610.51 421.84C612.19 425.42 613.19 429.32 613.44 433.28L613.53 434.76L613.49 436.25L613.44 437.74C613.42 438.23 613.33 438.72 613.27 439.21C613.13 440.19 613.04 441.18 612.78 442.13L612.43 443.57C612.31 444.05 612.19 444.55 612.08 444.9C604.62 470.05 596.75 495.07 588.99 520.13C581.13 545.16 573.27 570.19 565 595.1C564.56 596.41 563.15 597.12 561.84 596.69C560.61 596.28 559.91 594.96 560.22 593.7Z" fill="black"/>
<path d="M145.09 377.46C161.88 376.03 178.69 375.07 195.5 374.01L220.71 372.43C229.11 371.91 237.52 371.48 245.93 371.03C262.75 370.25 279.58 369.7 296.42 369.36C313.26 369.04 330.1 368.84 346.97 369.19C348.35 369.22 349.45 370.36 349.42 371.75C349.39 373.02 348.42 374.06 347.19 374.19C330.42 376.01 313.62 377.27 296.81 378.41C280.01 379.53 263.19 380.45 246.37 381.13C237.96 381.41 229.54 381.71 221.12 381.92L195.87 382.53C179.03 382.93 162.2 383.43 145.35 383.46C143.69 383.46 142.34 382.12 142.34 380.46C142.34 378.89 143.55 377.6 145.09 377.46Z" fill="black"/>
<path d="M149.91 416.89C161.62 414.9 173.37 413.67 185.13 412.63C196.89 411.6 208.68 410.97 220.47 410.42C232.26 409.87 244.06 409.48 255.87 409.24C267.68 409.04 279.49 408.92 291.33 409.25C292.44 409.28 293.31 410.2 293.28 411.31C293.25 412.3 292.51 413.11 291.56 413.24C279.84 414.92 268.09 416.16 256.33 417.32C244.57 418.44 232.81 419.41 221.03 420.21C209.26 421.02 197.48 421.74 185.67 422.07C173.87 422.39 162.05 422.52 150.2 421.88C148.81 421.81 147.75 420.62 147.82 419.23C147.88 418.04 148.78 417.09 149.91 416.89Z" fill="black"/>
<path d="M283.38 461.96C272.44 463.31 261.49 464.39 250.53 465.42C245.05 465.93 239.57 466.37 234.08 466.83L217.62 468.08L201.16 469.33C195.67 469.75 190.18 470.08 184.7 470.46C173.72 471.22 162.74 471.89 151.75 472.47L155.47 468.33L157.96 508.15L152.77 503.34C165.3 502.73 177.84 502.29 190.38 501.77C202.92 501.27 215.46 500.91 228 500.48C240.54 500.05 253.08 499.64 265.62 499.31C278.16 498.94 290.7 498.61 303.25 498.32L299.16 502.86L298.59 491.77C298.41 488.07 298.19 484.38 298.05 480.67C297.98 478.82 297.94 476.97 297.92 475.11C297.88 473.26 297.9 471.4 297.92 469.54C297.99 465.83 298.13 462.11 298.54 458.37C298.66 457.26 299.67 456.45 300.78 456.58C301.65 456.68 302.33 457.31 302.53 458.12C303.42 461.77 304.04 465.44 304.59 469.12C304.86 470.96 305.11 472.8 305.31 474.64C305.54 476.48 305.73 478.32 305.9 480.17C306.23 483.86 306.49 487.55 306.79 491.24L307.66 502.31C307.84 504.63 306.11 506.65 303.79 506.83L303.7 506.84L303.56 506.85C291.03 507.51 278.5 508.15 265.97 508.74C253.44 509.37 240.9 509.91 228.37 510.45C215.83 510.97 203.3 511.57 190.76 512.04C178.22 512.48 165.69 513 153.14 513.35H152.96C150.27 513.43 148.02 511.3 147.95 508.61C147.95 508.59 147.95 508.55 147.95 508.53L147.46 468.63V468.59C147.43 466.45 149.08 464.67 151.18 464.49C162.14 463.57 173.12 462.74 184.09 462C189.58 461.63 195.06 461.21 200.55 460.88L217.02 459.87L233.49 458.87C238.98 458.58 244.48 458.27 249.97 458.03C260.96 457.55 271.96 457.13 282.98 456.98C284.36 456.96 285.5 458.07 285.52 459.45C285.6 460.72 284.63 461.8 283.38 461.96Z" fill="black"/>
<path d="M192.42 259.65C193.9 262.61 194.73 265.98 194.84 269.41C194.94 272.84 194.34 276.32 193.09 279.56C190.62 286.08 185.59 291.58 179.34 294.91C176.21 296.59 172.77 297.68 169.18 298.12C165.6 298.57 161.87 298.34 158.34 297.36C154.81 296.38 151.49 294.68 148.62 292.47C145.76 290.24 143.32 287.52 141.44 284.48C137.73 278.39 135.88 271.35 136.39 264.2C136.66 260.64 137.53 257.1 139.04 253.82C140.53 250.53 142.72 247.53 145.39 245.08C148.05 242.62 151.2 240.73 154.52 239.48L157.04 238.65C157.9 238.45 158.74 238.2 159.61 238.07C161.33 237.72 163.1 237.59 164.87 237.57C171.95 237.54 178.93 240.65 183.32 245.72C184.12 246.64 184.02 248.04 183.09 248.83C182.39 249.44 181.41 249.52 180.63 249.12L180.53 249.07C179.25 248.4 178.01 247.78 176.73 247.26C175.45 246.75 174.16 246.33 172.87 246C170.27 245.37 167.65 245.13 165.06 245.29C162.49 245.46 159.86 246 157.5 247.04C155.13 248.05 153 249.46 151.23 251.23C147.69 254.76 145.65 259.67 145.41 264.78C145.27 267.34 145.63 269.93 146.3 272.44C146.97 274.96 147.99 277.37 149.34 279.54C152.03 283.89 156.15 287.21 160.86 288.62C165.54 290.06 170.85 289.54 175.54 287.31C180.19 285.13 184.3 281.44 186.83 276.75C189.38 272.07 190.28 266.49 189.15 260.86L189.14 260.81C188.95 259.86 189.57 258.93 190.52 258.74C191.3 258.56 192.08 258.96 192.42 259.65Z" fill="black"/>
<path d="M470.32 259.04C465.46 260.04 460.58 260.57 455.69 261.04C450.8 261.46 445.91 261.71 441.01 261.83C436.11 261.94 431.2 261.92 426.29 261.66C421.37 261.4 416.45 260.98 411.51 260.06C410.4 259.85 409.66 258.78 409.87 257.67C410.02 256.87 410.61 256.27 411.34 256.07C416.19 254.73 421.06 253.89 425.93 253.21C430.81 252.53 435.69 252.09 440.58 251.78C445.47 251.48 450.37 251.31 455.27 251.31C460.18 251.35 465.09 251.47 470.02 252.05C471.96 252.28 473.36 254.04 473.13 255.98C472.94 257.54 471.77 258.74 470.32 259.04Z" fill="black"/>
<path d="M320.3 259.68C325.36 258.18 330.45 257.44 335.54 256.89C340.64 256.35 345.75 256.21 350.86 256.15C355.97 256.1 361.09 256.18 366.22 256.44C368.78 256.57 371.35 256.73 373.91 256.99C376.48 257.22 379.04 257.51 381.62 257.93C382.73 258.11 383.49 259.16 383.3 260.27C383.16 261.11 382.54 261.74 381.76 261.92C379.22 262.53 376.68 263 374.14 263.42C371.6 263.87 369.05 264.21 366.51 264.53C361.42 265.16 356.32 265.62 351.22 265.94C346.12 266.26 341.01 266.49 335.89 266.33C330.77 266.16 325.64 265.8 320.48 264.67C319.09 264.37 318.21 262.99 318.51 261.6C318.72 260.65 319.43 259.94 320.3 259.68Z" fill="black"/>
<path d="M736.2 225.88C736.84 235.01 736.53 244.24 735.03 253.29C733.58 262.35 731.02 271.21 727.57 279.67C720.65 296.61 710.06 311.88 697.04 324.48C684.02 337.11 668.6 347.13 651.9 354.01C635.21 360.91 617.23 364.62 599.2 364.86C590.19 364.99 581.15 364.26 572.28 362.63C563.4 361 554.69 358.45 546.32 355.08C529.56 348.33 514.31 338 501.67 325.15C495.33 318.74 489.65 311.68 484.71 304.14C479.78 296.59 475.59 288.57 472.15 280.23C465.29 263.55 461.72 245.53 461.46 227.5C461.13 209.47 464.25 191.32 470.66 174.37C471.4 172.23 472.34 170.16 473.21 168.07C474.05 165.97 475.09 163.95 476.06 161.9C478.07 157.84 480.31 153.89 482.72 150.05C487.54 142.37 493.13 135.17 499.38 128.6C505.64 122.04 512.54 116.06 520.03 110.94C527.52 105.81 535.53 101.46 543.9 97.99C560.64 91.01 578.79 87.67 596.8 87.85C614.77 88 632.79 91.55 649.37 98.61C657.65 102.14 665.56 106.54 672.93 111.69L675.66 113.67C676.57 114.33 677.49 114.97 678.36 115.69L681 117.78L682.32 118.83L683.6 119.93C685.29 121.41 687.06 122.8 688.66 124.37C690.29 125.91 691.99 127.39 693.53 129.03C706.23 141.78 716.32 157.08 723.44 173.62C727 181.89 729.87 190.47 731.97 199.23C734.07 208 735.46 216.91 736.2 225.88ZM723.26 226.76C722.78 218.41 721.7 210.11 719.97 201.94C718.25 193.77 715.94 185.72 712.92 177.94C706.91 162.37 698.12 147.84 686.77 135.53C683.96 132.43 680.93 129.53 677.78 126.78C674.61 124.05 671.26 121.52 667.8 119.17C660.87 114.48 653.47 110.52 645.73 107.37C630.25 101.08 613.51 98.06 596.78 98.18C580.08 98.28 563.47 101.64 548.25 108.24C533.02 114.82 519.24 124.59 507.91 136.67C502.24 142.71 497.19 149.32 492.83 156.37C490.65 159.89 488.63 163.52 486.82 167.24C485.92 169.11 484.96 170.94 484.18 172.87C483.37 174.78 482.5 176.66 481.82 178.62C475.86 194.11 472.99 210.75 472.92 227.42C472.88 244.09 475.87 260.78 481.93 276.33C487.95 291.89 497.21 306.17 508.84 318.12C520.49 330.05 534.66 339.47 550.11 345.66C565.57 351.88 582.33 354.66 598.99 354.24C615.66 353.83 632.22 350.17 647.53 343.62C662.84 337.08 676.92 327.66 688.67 315.96C700.42 304.27 709.84 290.28 715.79 274.96C721.77 259.65 724.22 243.13 723.26 226.76Z" fill="black"/>
<path d="M696.98 185.7C701.99 197.26 705.16 209.62 706.55 222.17C708.17 234.75 707.09 247.85 703.6 260.19C703.12 261.72 702.7 263.27 702.18 264.79L700.53 269.32L698.63 273.75C697.97 275.21 697.22 276.63 696.52 278.08C693.57 283.78 690.08 289.21 686.15 294.27C682.21 299.34 677.84 304.07 673.08 308.37C668.31 312.66 663.18 316.55 657.77 319.99C652.36 323.43 646.66 326.43 640.75 328.96C634.83 331.45 628.69 333.43 622.42 334.9C609.9 337.87 596.86 338.67 584.03 337.23C571.19 335.84 558.61 331.94 547.11 326.01C535.62 320.05 525.26 311.93 516.72 302.24C508.16 292.56 501.35 281.38 496.61 269.4C491.88 257.4 489.28 244.63 488.68 231.8C488.18 218.97 489.73 206.06 493.36 193.73C497.03 181.42 502.77 169.73 510.35 159.36C517.91 148.98 527.41 140.03 538.14 133.03C543.51 129.52 549.22 126.56 555.14 124.13C561.06 121.69 567.21 119.83 573.46 118.55C579.71 117.28 586.07 116.52 592.42 116.39C594.01 116.39 595.6 116.36 597.19 116.38C598.77 116.44 600.36 116.47 601.94 116.59C605.1 116.77 608.26 117.12 611.39 117.58C614.53 118.02 617.63 118.66 620.72 119.37C623.8 120.11 626.83 121.03 629.83 122.03C632.82 123.06 635.75 124.23 638.64 125.5C641.52 126.79 644.32 128.25 647.06 129.79C648.02 130.33 648.36 131.55 647.82 132.51C647.3 133.44 646.15 133.79 645.2 133.33L645.19 133.32C623.46 122.67 598.18 120.3 575.02 125.61C551.82 130.98 531 145.1 517.33 164.42C510.48 174.06 505.36 184.9 502.15 196.27C498.95 207.66 497.77 219.56 498.29 231.37C498.89 243.17 501.32 254.86 505.67 265.81C510.05 276.74 516.29 286.91 524.1 295.68C539.68 313.29 561.8 324.78 585.15 327.41C590.98 328.07 596.88 328.26 602.77 327.98C608.66 327.71 614.51 326.83 620.26 325.55C626.01 324.25 631.66 322.49 637.15 320.31C642.62 318.08 647.91 315.41 652.96 312.32C673.18 300.08 689.18 280.63 696.2 258.01C699.7 246.7 700.94 234.78 699.91 222.83C698.99 210.83 696.48 198.93 692.32 187.59V187.58C691.84 186.28 692.51 184.85 693.81 184.37C695.08 183.89 696.46 184.5 696.98 185.7Z" fill="black"/>
<path d="M615.98 226.32C616.64 236.06 608.06 244.01 598.29 244.01C588.52 244.01 581.14 236.09 581.14 226.32C581.14 216.55 588.52 208.63 598.29 208.63C608.06 208.64 615.28 216.1 615.98 226.32Z" fill="black"/>
<path d="M600.94 223.74C605.23 226.61 609.22 229.81 613.15 233.06C617.06 236.35 620.85 239.76 624.54 243.28C628.24 246.8 631.84 250.41 635.29 254.2C638.74 257.99 642.07 261.9 645.07 266.18C645.72 267.11 645.49 268.38 644.57 269.03C643.9 269.5 643.04 269.51 642.37 269.13C637.85 266.52 633.66 263.54 629.58 260.44C625.5 257.34 621.58 254.07 617.76 250.69C613.93 247.31 610.2 243.84 606.58 240.24C602.99 236.61 599.45 232.92 596.22 228.9C595 227.37 595.24 225.15 596.76 223.92C597.99 222.93 599.69 222.91 600.94 223.74Z" fill="black"/>
<path d="M598.18 144.44C599.28 151.23 600.01 158.04 600.68 164.84C601.29 171.65 601.82 178.46 602.19 185.27C602.56 192.08 602.9 198.9 602.86 205.72C602.82 212.55 602.55 219.38 601.57 226.23C601.33 227.89 599.79 229.05 598.13 228.81C596.82 228.62 595.83 227.63 595.58 226.4C594.21 219.62 593.54 212.81 593.1 206C592.66 199.19 592.6 192.37 592.57 185.54C592.54 178.72 592.67 171.89 592.88 165.06C593.15 158.23 593.48 151.39 594.18 144.55C594.29 143.44 595.28 142.64 596.39 142.75C597.33 142.85 598.04 143.56 598.18 144.44Z" fill="black"/>
</svg>
