<svg width="200" height="200" viewBox="0 0 200 200" fill="none" xmlns="http://www.w3.org/2000/svg">
<path d="M112.637 158.685C117.23 156.66 121.942 154.992 126.675 153.392C131.407 151.79 136.137 150.185 140.88 148.61L147.992 146.25L155.112 143.915C157.485 143.137 159.865 142.377 162.245 141.617C164.625 140.855 167.002 140.092 169.39 139.352L168.68 140.79L133.565 40.965L135.447 41.8975L98.8949 53.2775C98.3674 53.4425 97.8074 53.1475 97.6424 52.62C97.4799 52.1025 97.7649 51.55 98.2749 51.375L134.517 39.045C135.292 38.7825 136.132 39.195 136.395 39.97L136.397 39.98L170.802 140.05C171.005 140.64 170.692 141.282 170.102 141.485L170.092 141.487C167.732 142.31 165.367 143.107 163 143.907C160.635 144.71 158.267 145.51 155.895 146.295L148.78 148.645L141.655 150.97C136.905 152.517 132.145 154.037 127.385 155.557C122.627 157.08 117.847 158.537 112.947 159.635C112.677 159.695 112.407 159.525 112.347 159.255C112.295 159.017 112.422 158.78 112.637 158.685Z" fill="black"/>
<path d="M69.0424 90.5C69.5249 91.6525 69.9999 92.805 70.4699 93.9625L71.8824 97.43L74.6574 104.385C76.4899 109.027 78.2974 113.682 80.0774 118.345L82.7424 125.342L84.0649 128.845L85.3724 132.352L87.9774 139.372C88.8274 141.72 89.6949 144.06 90.5274 146.412C90.7124 146.932 90.4399 147.505 89.9174 147.69C89.4124 147.867 88.8599 147.615 88.6574 147.127C87.7099 144.817 86.7974 142.495 85.8674 140.177L83.1299 133.207L81.7649 129.72L80.4174 126.227L77.7399 119.235C75.9599 114.57 74.2074 109.897 72.4774 105.215L69.9099 98.18L68.6499 94.6525C68.2299 93.4775 67.8124 92.3 67.4074 91.12C67.2499 90.6625 67.4924 90.165 67.9499 90.0075C68.3874 89.86 68.8649 90.0775 69.0424 90.5Z" fill="black"/>
<path d="M95.8223 79.205L66.1973 93.1225C65.5973 93.405 64.8848 93.1625 64.5773 92.585L64.5723 92.5725L49.0873 63.4625L49.0848 63.4575C48.7623 62.85 48.9923 62.095 49.5998 61.7725C49.6348 61.7525 49.6748 61.735 49.7098 61.72L80.4173 49.075C80.9448 48.8575 81.5398 49.0675 81.8198 49.545L81.8348 49.57C82.3748 50.4875 82.8823 51.4225 83.3773 52.3625C83.8748 53.3025 84.3573 54.25 84.8273 55.205C85.3023 56.1575 85.7573 57.12 86.1998 58.09C86.6348 59.065 87.0623 60.0425 87.4398 61.05C87.5373 61.3125 87.4048 61.6025 87.1423 61.7C86.9273 61.78 86.6948 61.705 86.5623 61.5325C85.9123 60.675 85.3148 59.7925 84.7248 58.9025C84.1423 58.01 83.5698 57.11 83.0223 56.2C82.4673 55.2925 81.9248 54.3775 81.3948 53.455C80.8673 52.5325 80.3473 51.605 79.8623 50.6575L81.2798 51.1525L50.6698 64.0275L51.2923 62.2875L66.7773 91.3975L65.1498 90.85L94.9848 77.3875C95.4873 77.16 96.0798 77.385 96.3073 77.8875C96.5348 78.3875 96.3148 78.9725 95.8223 79.205Z" fill="black"/>
<path d="M64.5775 91.74L68.515 73.105L68.52 73.08C68.6125 72.6475 68.9175 72.3075 69.2975 72.15C70.675 71.5925 72.0425 71.01 73.415 70.44L77.5175 68.695C80.25 67.525 82.97 66.33 85.695 65.1475C88.41 63.9375 91.13 62.745 93.8375 61.52L97.8975 59.6775C99.245 59.0525 100.597 58.4375 101.94 57.8C102.557 57.5075 103.295 57.77 103.587 58.3875C103.737 58.7025 103.742 59.0475 103.627 59.35L103.62 59.3675L96.34 78.6375C96.145 79.155 95.5675 79.415 95.05 79.22C94.5425 79.0275 94.2825 78.465 94.46 77.955L101.27 58.515L102.952 60.085C101.58 60.655 100.215 61.245 98.8475 61.825L94.7575 63.6C92.0325 64.785 89.3225 66.005 86.605 67.205C83.8975 68.4325 81.1875 69.6475 78.4875 70.8875L74.44 72.7575C73.0975 73.3925 71.7475 74.0175 70.41 74.665L71.1925 73.71L66.7675 92.235C66.6225 92.84 66.015 93.2125 65.4125 93.0675C64.8225 92.9225 64.4525 92.3325 64.5775 91.74Z" fill="black"/>
<path d="M49.0023 62.4875L54.6498 44.81L54.6523 44.805C54.7748 44.425 55.0548 44.1325 55.3923 43.985L86.0123 30.6225L86.0148 30.62C86.4873 30.415 87.0299 30.5975 87.2849 31.0275L103.527 58.3075C103.88 58.9 103.685 59.6675 103.092 60.02C102.5 60.3725 101.732 60.1775 101.38 59.585C101.377 59.5825 101.372 59.5725 101.37 59.5675L85.5598 32.035L86.8323 32.4425L56.5223 46.4875L57.2648 45.66L51.3773 63.26C51.1573 63.915 50.4498 64.2675 49.7948 64.05C49.1473 63.8375 48.7948 63.1375 49.0023 62.4875Z" fill="black"/>
<path d="M66.06 92.9099L38.4425 104.695C37.845 104.95 37.155 104.692 36.8575 104.127L21.595 74.8999C21.3375 74.4074 21.5275 73.7999 22.0225 73.5424C22.0425 73.5324 22.0625 73.5224 22.08 73.5149L22.0925 73.5099C24.135 72.6124 26.1875 71.7349 28.2475 70.8774L31.3375 69.5899L34.4375 68.3299L37.5375 67.0699C38.575 66.6574 39.61 66.2424 40.6525 65.8449C42.735 65.0399 44.83 64.2699 46.95 63.5549C47.2775 63.4449 47.6325 63.6199 47.7425 63.9499C47.8425 64.2499 47.705 64.5724 47.43 64.7099C45.43 65.7124 43.4075 66.6599 41.37 67.5724C40.3525 68.0349 39.33 68.4749 38.3075 68.9224L35.23 70.2374L32.1525 71.5524L29.0625 72.8399C27.005 73.6999 24.9375 74.5399 22.86 75.3599L23.3575 73.9674L39.0625 102.96L37.4775 102.392L65.2875 91.0699C65.8 90.8624 66.3825 91.1074 66.59 91.6199C66.8 92.1174 66.56 92.6949 66.06 92.9099Z" fill="black"/>
<path d="M22.5774 74.565L18.3699 82.2649L18.3999 81.2624L30.2774 103.007L29.3274 102.417L37.8924 102.84C38.4449 102.867 38.8699 103.337 38.8424 103.887C38.8149 104.43 38.3624 104.847 37.8224 104.837L29.2499 104.665C28.8399 104.657 28.4849 104.425 28.3049 104.085L28.2999 104.075L16.6424 82.2125L16.6149 82.16C16.4474 81.8475 16.4824 81.4799 16.6749 81.2074L21.7299 74.0374C21.8899 73.8124 22.2024 73.7575 22.4274 73.9175C22.6374 74.0625 22.6999 74.345 22.5774 74.565Z" fill="black"/>
<path d="M55.7425 46.215L39.0025 42.7575C38.33 42.6175 37.8975 41.96 38.035 41.2875C38.12 40.88 38.395 40.56 38.75 40.4025L38.765 40.395L68.75 27.3075L68.77 27.3C68.9575 27.2175 69.1575 27.2 69.345 27.24L86.565 30.8C86.97 30.885 87.2325 31.28 87.1475 31.6875C87.065 32.085 86.68 32.345 86.2825 32.275L68.9675 29.205L69.5625 29.1375L39.78 42.6825L39.5425 40.32L56.175 44.265C56.7125 44.3925 57.045 44.9325 56.9175 45.47C56.7925 45.9925 56.27 46.3225 55.7425 46.215Z" fill="black"/>
<path d="M38.0375 40.895L40.255 33.4025C40.3575 33.0575 40.6025 32.7975 40.91 32.6625L40.9375 32.65L62.445 23.4325L62.52 23.4C62.81 23.275 63.1325 23.3225 63.37 23.495L65.9925 25.3975C66.33 25.6425 66.4025 26.1125 66.16 26.4475C65.94 26.7525 65.5325 26.8425 65.2075 26.675L62.3225 25.1975L63.25 25.26L41.9425 34.935L42.625 34.185L39.9325 41.5225C39.7425 42.0425 39.1675 42.3075 38.6475 42.1175C38.155 41.935 37.89 41.395 38.0375 40.895Z" fill="black"/>
<path d="M56.8649 121.47C57.7199 126.05 58.1124 130.675 58.6074 135.29L60.0524 149.14L61.4424 162.995L62.1149 169.925L62.7674 176.857L61.4699 175.727L69.5199 175.362L77.5699 175.022L93.6724 174.387L109.777 173.805L117.83 173.532L125.885 173.285L125.322 175.082L116.58 168.527L107.85 161.957L90.4249 148.775L73.0399 135.54C67.2624 131.105 61.3749 126.815 55.8599 122.032C55.5974 121.805 55.5699 121.41 55.7974 121.15C56.0049 120.91 56.3574 120.867 56.6149 121.037C62.7149 125.047 68.4424 129.547 74.2799 133.905L91.7374 147.045L109.155 160.237L117.847 166.855L126.527 173.49C126.967 173.825 127.05 174.455 126.715 174.895C126.53 175.137 126.257 175.27 125.977 175.287H125.967L117.92 175.712L109.872 176.115L93.7749 176.88L77.6749 177.59L69.6249 177.922L61.5724 178.23H61.5699C60.9049 178.255 60.3399 177.752 60.2774 177.1L59.6099 170.17L58.9624 163.237L57.7124 149.37L56.5174 135.497C56.1324 130.872 55.6449 126.255 55.6199 121.595C55.6174 121.247 55.8974 120.965 56.2449 120.965C56.5524 120.957 56.8099 121.177 56.8649 121.47Z" fill="black"/>
<path d="M92.9749 162.677C91.8699 162.077 90.8049 161.422 89.7549 160.747C89.2274 160.412 88.7099 160.065 88.1899 159.72L86.6499 158.66C84.6099 157.227 82.5649 155.802 80.5349 154.355L77.4899 152.185L74.4549 150C73.4449 149.272 72.4399 148.535 71.4374 147.795C70.4324 147.057 69.4274 146.32 68.4324 145.57L70.4149 144.427L72.3324 164.452L71.3374 163.56C75.5099 163.447 79.6849 163.46 83.8574 163.52C85.9449 163.552 88.0299 163.587 90.1174 163.675C92.2049 163.762 94.2899 163.865 96.3774 164.06C96.6524 164.085 96.8574 164.33 96.8299 164.607C96.8074 164.852 96.6124 165.04 96.3774 165.06C94.2899 165.255 92.2049 165.357 90.1174 165.445C88.0299 165.532 85.9449 165.565 83.8574 165.6C79.6849 165.66 75.5099 165.672 71.3374 165.56H71.3224C70.8124 165.547 70.4024 165.16 70.3424 164.667L67.9274 144.695C67.8449 144.012 68.3299 143.395 69.0124 143.312C69.3324 143.272 69.6399 143.36 69.8824 143.535L69.9099 143.555C70.9224 144.28 71.9274 145.02 72.9299 145.757C73.9349 146.495 74.9399 147.232 75.9349 147.98L78.9249 150.222L81.9049 152.48C83.8924 153.985 85.8624 155.512 87.8374 157.032L89.3099 158.187C89.7949 158.58 90.2799 158.97 90.7574 159.372C91.7149 160.172 92.6574 160.995 93.5624 161.87C93.7624 162.065 93.7674 162.382 93.5724 162.582C93.4174 162.752 93.1699 162.785 92.9749 162.677Z" fill="black"/>
<path d="M162.26 34.4C162.725 36.625 163.035 38.865 163.292 41.11C163.54 43.355 163.737 45.605 163.96 47.8525L165.222 61.3425C165.632 65.84 166.032 70.3375 166.417 74.8375C166.802 79.3375 167.177 83.8375 167.515 88.3425L167.517 88.3675C167.527 88.495 167.505 88.62 167.462 88.73L163.642 98.97C163.465 99.445 162.937 99.685 162.465 99.5075C162.247 99.4275 162.08 99.2725 161.977 99.0825L161.972 99.075L156.76 89.4275C156.697 89.3125 156.662 89.19 156.65 89.07L156.647 89.05L151.417 32.895V32.8925C151.387 32.57 151.502 32.2625 151.702 32.04C151.822 31.9175 151.9 31.8525 151.997 31.765C152.09 31.685 152.182 31.6075 152.275 31.5325C152.462 31.3825 152.652 31.2425 152.847 31.11C153.24 30.845 153.647 30.605 154.075 30.4C154.93 29.99 155.867 29.7075 156.835 29.6375C157.317 29.605 157.805 29.6225 158.282 29.6925C158.76 29.76 159.222 29.895 159.665 30.0575C160.547 30.4025 161.332 30.9075 162.015 31.49C162.277 31.715 162.307 32.1075 162.082 32.37C161.872 32.615 161.515 32.6575 161.255 32.4775L161.247 32.4725C160.602 32.0225 159.905 31.6775 159.192 31.4775C158.832 31.3875 158.472 31.32 158.112 31.305C157.752 31.29 157.392 31.3125 157.037 31.3725C156.33 31.4975 155.647 31.7775 155.02 32.16C154.705 32.3525 154.405 32.57 154.12 32.8075C153.98 32.9275 153.84 33.05 153.71 33.1775C153.645 33.24 153.58 33.305 153.52 33.37C153.465 33.43 153.39 33.51 153.367 33.5425L153.652 32.6875L158.635 88.865L158.522 88.4875L163.59 98.2125L161.92 98.3175L165.82 88.1075L165.767 88.495C165.307 84.0025 164.882 79.505 164.47 75.01C164.055 70.5125 163.655 66.015 163.267 61.515L162.135 48.015C161.96 45.7625 161.755 43.515 161.605 41.2625C161.465 39.0075 161.375 36.75 161.44 34.4775C161.447 34.25 161.637 34.0725 161.862 34.0775C162.062 34.0775 162.22 34.2175 162.26 34.4Z" fill="black"/>
<path d="M165.805 88.9974C165.81 88.9974 165.787 88.9799 165.77 88.9649C165.752 88.9499 165.732 88.9349 165.71 88.9174C165.667 88.8849 165.622 88.8524 165.575 88.8224C165.482 88.7574 165.377 88.6999 165.277 88.6399C165.067 88.5274 164.85 88.4224 164.625 88.3399C164.172 88.1699 163.69 88.0499 163.195 88.0174C162.702 87.9874 162.192 87.9924 161.69 88.1024C161.435 88.1349 161.19 88.2274 160.937 88.2899C160.687 88.3674 160.447 88.4774 160.197 88.5699L160.135 88.5924C159.877 88.6874 159.59 88.5549 159.495 88.2974C159.41 88.0649 159.507 87.8074 159.72 87.6899C159.982 87.5449 160.237 87.3824 160.51 87.2474C160.79 87.1274 161.06 86.9799 161.357 86.8949C161.937 86.6749 162.562 86.5674 163.192 86.5149C163.827 86.4649 164.472 86.5224 165.102 86.6549C165.42 86.7224 165.73 86.8149 166.04 86.9274C166.192 86.9874 166.347 87.0474 166.5 87.1199C166.575 87.1524 166.655 87.1924 166.732 87.2349C166.77 87.2549 166.81 87.2749 166.852 87.2999C166.895 87.3249 166.93 87.3424 166.992 87.3849C167.437 87.7124 167.532 88.3374 167.205 88.7824C166.875 89.2299 166.25 89.3249 165.805 88.9974Z" fill="black"/>
<path d="M164.755 93.4224C164.755 93.4224 162.407 92.1824 160.06 93.5099L162.785 98.6424L164.755 93.4224Z" fill="black"/>
<path d="M131.647 92.0425C128.092 91.85 124.555 91.5275 121.02 91.17C119.252 90.99 117.49 90.7925 115.727 90.5725C113.965 90.3575 112.207 90.11 110.452 89.83L111.395 89.505L93.0499 107.887L93.2774 106.84L102.215 130.452L101.285 129.657L126.982 134.765L125.812 135.15L142.47 116.995L142.217 118.047L135.567 92.205C135.465 91.805 135.705 91.395 136.107 91.2925C136.502 91.19 136.902 91.4225 137.015 91.8125L144.387 117.457C144.495 117.832 144.392 118.22 144.15 118.492L144.135 118.51L127.662 136.832C127.36 137.17 126.915 137.3 126.502 137.22L126.495 137.217L100.8 132.11L100.787 132.107C100.347 132.02 100.01 131.707 99.8699 131.315L91.4024 107.53L91.3999 107.525C91.2674 107.15 91.3699 106.75 91.6299 106.482L109.797 87.925C110.04 87.675 110.372 87.565 110.695 87.595L110.74 87.6C112.507 87.7725 114.272 87.975 116.03 88.2125C117.79 88.445 119.547 88.7 121.302 88.97C124.812 89.515 128.317 90.095 131.805 90.805C132.145 90.875 132.362 91.205 132.295 91.545C132.232 91.85 131.955 92.06 131.647 92.0425Z" fill="black"/>
<path d="M136.855 92.5074L119.933 112.277C119.645 112.612 119.215 112.752 118.81 112.682L118.803 112.68L92.2025 108.05C91.7275 107.967 91.4075 107.515 91.49 107.037C91.5725 106.57 92.0125 106.255 92.4775 106.322L119.195 110.215L118.065 110.617L135.735 91.5124C136.018 91.2074 136.49 91.1899 136.795 91.4699C137.093 91.7424 137.115 92.2024 136.855 92.5074Z" fill="black"/>
<path d="M120.19 111.07C120.735 112.795 121.255 114.527 121.763 116.265C122.283 117.997 122.763 119.742 123.26 121.482C123.76 123.222 124.233 124.97 124.698 126.72C125.15 128.475 125.603 130.227 126.005 131.997C126.068 132.267 125.898 132.537 125.628 132.597C125.385 132.652 125.143 132.522 125.053 132.297C124.368 130.617 123.733 128.92 123.095 127.225C122.47 125.525 121.855 123.822 121.265 122.11C120.673 120.4 120.065 118.695 119.498 116.977C118.918 115.262 118.35 113.545 117.805 111.82C117.598 111.162 117.963 110.46 118.623 110.252C119.283 110.047 119.983 110.412 120.19 111.07Z" fill="black"/>
<path d="M80.0124 49.865C80.7374 46.7075 81.6274 43.6 82.5624 40.5025C83.0324 38.955 83.5099 37.4125 84.0124 35.875C84.5099 34.3375 85.0324 32.805 85.5849 31.2825C85.7499 30.8275 86.2524 30.5925 86.7074 30.7575C87.1324 30.91 87.3649 31.3575 87.2624 31.785C86.8849 33.36 86.4774 34.925 86.0474 36.485C85.6199 38.045 85.1699 39.5975 84.7124 41.1475C83.7899 44.245 82.8199 47.33 81.6899 50.3675C81.5199 50.8225 81.0149 51.0525 80.5624 50.8825C80.1424 50.7275 79.9149 50.2875 80.0124 49.865Z" fill="black"/>
<path d="M110.552 61.7075C111.935 60.855 113.417 60.3175 114.892 59.7675C116.367 59.21 117.845 58.67 119.345 58.195C120.845 57.725 122.357 57.29 123.887 56.915C125.422 56.5525 126.965 56.22 128.555 56.04C128.905 56 129.22 56.2525 129.257 56.6C129.287 56.8675 129.145 57.115 128.922 57.235C127.505 57.98 126.042 58.5725 124.57 59.1325C123.092 59.6825 121.597 60.1725 120.092 60.625C118.585 61.075 117.057 61.46 115.525 61.825C113.995 62.2 112.467 62.585 110.845 62.6575C110.56 62.67 110.317 62.45 110.305 62.165C110.3 61.9775 110.4 61.8025 110.552 61.7075Z" fill="black"/>
<path d="M108.17 71.5975C110.04 70.645 111.967 69.8724 113.912 69.1474C115.857 68.4225 117.832 67.7949 119.812 67.1849C121.792 66.5749 123.787 66.005 125.792 65.4675C127.8 64.94 129.815 64.4325 131.865 64.0325C132.137 63.98 132.402 64.1575 132.455 64.43C132.5 64.6625 132.377 64.8875 132.172 64.9825C130.28 65.8625 128.35 66.635 126.417 67.39C124.48 68.135 122.532 68.845 120.57 69.515C118.607 70.185 116.64 70.8374 114.642 71.3949C112.645 71.9499 110.63 72.4599 108.557 72.7874C108.212 72.8424 107.887 72.6074 107.832 72.2624C107.787 71.9824 107.932 71.72 108.17 71.5975Z" fill="black"/>
</svg>
